<svg xmlns="http://www.w3.org/2000/svg" xmlns:xlink="http://www.w3.org/1999/xlink" xmlns:sketch="http://www.bohemiancoding.com/sketch/ns" viewBox="0 0 40 50" version="1.1" x="0px" y="0px"><title>accordion_keyboard_music_instrument_sound</title><desc>Created with Sketch.</desc><g stroke="none" stroke-width="1" fill="none" fill-rule="evenodd" sketch:type="MSPage"><path d="M16,16.5813479 L18.4448788,33.9775644 L20.4254149,33.6992182 L17.9251466,15.9088847 L22.897423,33.2492731 L24.8199464,32.6979984 L19.8545279,15.3815262 L27.1201747,31.7004362 L28.9472656,30.8869629 L21.6991204,14.6073623 L31.2114966,29.8303463 L32.9075928,28.7705077 L23.4544511,13.6423188 L34.2617504,26.5219565 C34.6165826,26.9448291 35.252842,27.0000465 35.6798804,26.6417188 L37.1976153,25.368188 C37.6312085,25.0043601 37.6821013,24.3752767 37.3259282,23.950806 L21.9032675,5.57079474 C21.5484352,5.14792216 20.9121759,5.09270468 20.4851374,5.45103245 C20.4851374,5.45103245 18.9008316,6.85607427 17.9251466,7.33532719 C17.4236783,7.58164663 16.5347134,7.82818803 15.837148,8 L15.837148,8 L5,8 C4.44771525,8 4,8.44771525 4,9 L4,33 C4,33.5522847 4.44771525,34 5,34 L15,34 L16,34 L16,16.5813479 Z M14,10 L6,10 L6,32 L14,32 L14,30 L8,30 L8,28 L14,28 L14,26 L8,26 L8,24 L14,24 L14,22 L8,22 L8,20 L14,20 L14,18 L8,18 L8,16 L14,16 L14,14 L8,14 L8,12 L14,12 L14,10 Z" fill="#000000" sketch:type="MSShapeGroup"/></g><text x="0" y="55" fill="#000000" font-size="5px" font-weight="bold" font-family="'Helvetica Neue', Helvetica, Arial-Unicode, Arial, Sans-serif">Created by Pham Thi Dieu Linh</text><text x="0" y="60" fill="#000000" font-size="5px" font-weight="bold" font-family="'Helvetica Neue', Helvetica, Arial-Unicode, Arial, Sans-serif">from the Noun Project</text></svg>