<svg xmlns="http://www.w3.org/2000/svg" xmlns:xlink="http://www.w3.org/1999/xlink" version="1.1" x="0px" y="0px" viewBox="0 0 30.805 25.953750000000003" style="enable-background:new 0 0 30.805 20.763;" xml:space="preserve"><g><path d="M8.772,1.058C8.709,0.768,8.53,0.509,8.28,0.347C8.03,0.186,7.718,0.13,7.428,0.19L0.893,1.597   C0.598,1.661,0.344,1.836,0.181,2.09C0.018,2.343-0.038,2.646,0.026,2.94l3.642,16.93c0.111,0.517,0.576,0.893,1.104,0.893   c0.08,0,0.16-0.009,0.238-0.025l6.535-1.405c0.296-0.063,0.549-0.238,0.714-0.493c0.161-0.251,0.217-0.561,0.154-0.851L8.772,1.058   z M4.801,19.759c-0.064,0.02-0.139-0.021-0.156-0.1L1.003,2.729c-0.013-0.06,0.04-0.142,0.1-0.154l3.993-0.836l0.35,1.627   L2.85,3.925l0.21,0.979l2.597-0.559L6,5.938L3.405,6.495l0.21,0.979l2.595-0.558L6.553,8.51L3.958,9.067l0.21,0.979l2.596-0.558   l0.343,1.592L4.51,11.639l0.21,0.979l2.597-0.559l0.343,1.594l-2.597,0.559l0.21,0.979l2.597-0.559l0.343,1.593l-2.596,0.559   l0.21,0.979l2.597-0.559l0.366,1.699L4.801,19.759z"/><path d="M30.609,1.956c-0.17-0.25-0.426-0.419-0.723-0.476l-6.564-1.262c-0.621-0.118-1.207,0.296-1.324,0.896l-3.269,17.006   c-0.058,0.296,0.005,0.597,0.174,0.848c0.167,0.247,0.431,0.421,0.723,0.477l6.565,1.262c0.072,0.014,0.143,0.021,0.213,0.021   c0.541,0,1.008-0.386,1.111-0.917l3.268-17.006C30.841,2.508,30.779,2.207,30.609,1.956z M24.383,5.429   c0.477,0.092,0.791,0.553,0.697,1.027c-0.09,0.478-0.553,0.789-1.027,0.697c-0.479-0.092-0.789-0.552-0.699-1.028   C23.445,5.648,23.906,5.337,24.383,5.429z M22.541,15.004c-0.475-0.091-0.787-0.551-0.695-1.028   c0.09-0.476,0.553-0.787,1.027-0.696c0.477,0.091,0.791,0.553,0.697,1.028C23.479,14.784,23.02,15.096,22.541,15.004z    M23.043,12.388c-0.475-0.091-0.787-0.553-0.695-1.028c0.092-0.477,0.553-0.788,1.029-0.698c0.477,0.094,0.787,0.555,0.697,1.029   C23.984,12.167,23.521,12.48,23.043,12.388z M23.549,9.771c-0.477-0.091-0.789-0.553-0.697-1.029   c0.092-0.476,0.553-0.788,1.027-0.697c0.477,0.092,0.789,0.554,0.699,1.029C24.484,9.55,24.023,9.863,23.549,9.771z M24.908,16.816   c-0.479-0.091-0.789-0.552-0.699-1.03c0.092-0.475,0.555-0.787,1.029-0.695c0.477,0.091,0.789,0.553,0.699,1.027   C25.846,16.596,25.383,16.907,24.908,16.816z M25.41,14.199c-0.475-0.091-0.789-0.553-0.697-1.029   c0.092-0.475,0.553-0.788,1.029-0.696c0.475,0.092,0.789,0.553,0.697,1.027C26.348,13.979,25.887,14.291,25.41,14.199z    M25.914,11.583c-0.477-0.091-0.789-0.552-0.697-1.03c0.09-0.475,0.553-0.785,1.029-0.694c0.475,0.091,0.787,0.551,0.697,1.026   C26.852,11.362,26.389,11.674,25.914,11.583z M26.418,8.966c-0.479-0.091-0.791-0.553-0.699-1.03   c0.092-0.475,0.553-0.787,1.029-0.696c0.475,0.092,0.789,0.553,0.697,1.029S26.893,9.059,26.418,8.966z M26.92,6.349   c-0.477-0.091-0.789-0.552-0.697-1.029c0.092-0.475,0.553-0.787,1.027-0.696c0.477,0.092,0.791,0.553,0.699,1.029   C27.857,6.128,27.396,6.441,26.92,6.349z"/><path d="M15.233,0.001c-0.552,0.02-0.85,0.481-0.833,1.034l0.64,16.986c0.008,0.222,0.221,0.404,0.446,0.412   c0.236,0.008,0.183-0.177,0.191-0.412L16,1.035c0-0.021,0-0.046,0-0.067C16,0.415,15.786-0.018,15.233,0.001z"/><path d="M20.477,1.122c0.066-0.549-0.324-1.047-0.873-1.113s-1.047,0.325-1.113,0.873l-2.063,17.074   c-0.027,0.221,0.123,0.429,0.344,0.471c0.232,0.044,0.455-0.108,0.5-0.34l3.195-16.898C20.471,1.167,20.475,1.144,20.477,1.122z"/><path d="M12.567,0.816c-0.104-0.543-0.627-0.9-1.17-0.797c-0.543,0.103-0.898,0.626-0.797,1.169l3.197,16.898   c0.041,0.219,0.246,0.371,0.471,0.345c0.234-0.028,0.4-0.241,0.373-0.476L12.577,0.882C12.575,0.861,12.571,0.837,12.567,0.816z"/></g><text x="0" y="35.763000000000005" fill="#000000" font-size="5px" font-weight="bold" font-family="'Helvetica Neue', Helvetica, Arial-Unicode, Arial, Sans-serif">Created by Yo! Baba</text><text x="0" y="40.763000000000005" fill="#000000" font-size="5px" font-weight="bold" font-family="'Helvetica Neue', Helvetica, Arial-Unicode, Arial, Sans-serif">from the Noun Project</text></svg>